<svg width="157" height="29" viewBox="0 0 157 29" fill="none" xmlns="http://www.w3.org/2000/svg">
    <path d="M27.3512 20.4222H22.3388C23.6108 18.7817 24.3769 16.7316 24.3769 14.4984C24.3769 12.2653 23.6083 10.2104 22.3339 8.56987H27.3488C28.1976 10.3694 28.6767 12.3785 28.6767 14.4984C28.6767 16.6184 28.2 18.6227 27.3512 20.4222ZM14.5976 20.4222C11.3022 20.4222 8.63185 17.7699 8.63185 14.496C8.63185 11.2222 11.3022 8.56987 14.5976 8.56987C17.893 8.56987 20.5634 11.2246 20.5634 14.496C20.5634 17.7675 17.893 20.4222 14.5976 20.4222ZM4.81355 14.4984C4.81355 19.8657 9.19122 24.2188 14.5952 24.2188C16.0447 24.2188 17.4164 23.896 18.6543 23.3347V27.8926C17.3702 28.2756 16.0082 28.4852 14.5976 28.4852C6.82484 28.4852 0.523438 22.2241 0.523438 14.4984C0.523438 6.77274 6.82484 0.511719 14.6001 0.511719C16.0106 0.511719 17.3702 0.721303 18.6567 1.10434V5.66219C17.4188 5.10089 16.0471 4.77808 14.5976 4.77808C9.19608 4.77808 4.81598 9.12876 4.81598 14.4984H4.81355Z" fill="currentColor"></path>
    <path d="M42.9546 17.7132C44.1244 17.7132 45.0753 17.2434 45.6444 16.6315V20.0331C44.8224 20.4089 43.8568 20.5968 42.8913 20.5968C39.4111 20.5968 36.6094 17.8529 36.6094 14.4996C36.6094 11.1462 39.4111 8.40234 42.8913 8.40234C43.8568 8.40234 44.8224 8.60711 45.6444 8.96605V12.3676C45.0753 11.7557 44.1244 11.2859 42.9546 11.2859C41.0722 11.2859 39.7102 12.6494 39.7102 14.4996C39.7102 16.3497 41.0722 17.7132 42.9546 17.7132ZM53.5072 8.40234C56.9412 8.40234 59.6772 11.1462 59.6772 14.4996C59.6772 17.8529 56.9388 20.5968 53.5072 20.5968C50.0756 20.5968 47.3371 17.8529 47.3371 14.4996C47.3371 11.1462 50.0902 8.40234 53.5072 8.40234ZM53.5072 11.2546C51.8145 11.2546 50.4379 12.5868 50.4379 14.4996C50.4379 16.4123 51.8145 17.7445 53.5072 17.7445C55.1999 17.7445 56.5764 16.4123 56.5764 14.4996C56.5764 12.5868 55.1999 11.2546 53.5072 11.2546ZM64.5188 8.59025L69.5823 15.4872V8.59025H72.5567V20.4089H69.9131L64.6745 13.4035V20.4089H61.7001V8.59025H64.5164H64.5188ZM81.0859 17.7132C82.2557 17.7132 83.2066 17.2434 83.7757 16.6315V20.0331C82.9537 20.4089 81.9881 20.5968 81.0226 20.5968C77.5424 20.5968 74.7407 17.8529 74.7407 14.4996C74.7407 11.1462 77.5424 8.40234 81.0226 8.40234C81.9881 8.40234 82.9537 8.60711 83.7757 8.96605V12.3676C83.2066 11.7557 82.2557 11.2859 81.0859 11.2859C79.2035 11.2859 77.8415 12.6494 77.8415 14.4996C77.8415 16.3497 79.2035 17.7132 81.0859 17.7132ZM91.6385 8.40234C95.0725 8.40234 97.8085 11.1462 97.8085 14.4996C97.8085 17.8529 95.0701 20.5968 91.6385 20.5968C88.2069 20.5968 85.4684 17.8529 85.4684 14.4996C85.4684 11.1462 88.2215 8.40234 91.6385 8.40234ZM91.6385 11.2546C89.9458 11.2546 88.5692 12.5868 88.5692 14.4996C88.5692 16.4123 89.9458 17.7445 91.6385 17.7445C93.3312 17.7445 94.7077 16.4123 94.7077 14.4996C94.7077 12.5868 93.3312 11.2546 91.6385 11.2546ZM103.062 16.1762V20.4089H99.9925V8.59025H103.932C106.766 8.59025 108.711 9.97061 108.711 12.3844C108.711 13.9672 107.746 15.1283 106.26 15.7233L110.059 20.4089H106.323L103.064 16.1762H103.062ZM103.062 13.8877H103.915C104.944 13.8877 105.562 13.3384 105.562 12.476C105.562 11.6136 104.944 11.0812 103.915 11.0812H103.062V13.8877ZM115.752 8.59025C119.169 8.59025 121.922 11.1293 121.922 14.4996C121.922 17.8698 119.169 20.4089 115.752 20.4089H111.433V8.59025H115.752ZM115.545 11.1149H114.534V17.8866H115.514C117.523 17.8866 118.821 16.3184 118.821 14.502C118.821 12.6856 117.523 11.1173 115.545 11.1173V11.1149ZM127.207 20.4089H124.106V8.59025H127.207V20.4089ZM136.765 15.6607V8.59266H139.866V15.6462C139.866 18.7972 137.699 20.5992 134.848 20.5992C131.998 20.5992 129.831 18.7972 129.831 15.6462V8.59266H132.932V15.6607C132.932 17.1495 133.691 17.8866 134.846 17.8866C136.001 17.8866 136.76 17.1495 136.76 15.6607H136.765Z" fill="currentColor"></path>
    <path d="M145.53 12.5093H145.44V20.4085H142.582V8.58984H147.135L149.389 15.2989L151.88 8.58984H156.104V20.4085H153.247V12.5093H153.157L150.279 20.4085H148.407L145.53 12.5093Z" fill="currentColor"></path>
</svg>
